<svg width="11" height="11" viewBox="0 0 11 11" fill="none" xmlns="http://www.w3.org/2000/svg">
<path d="M3.92172 2.54971L6.79755 5.49992L3.92172 8.45013C3.87023 8.50284 3.84141 8.5736 3.84141 8.64728C3.84141 8.72097 3.87023 8.79173 3.92172 8.84444C3.94673 8.86996 3.97657 8.89024 4.00952 8.90408C4.04246 8.91792 4.07783 8.92505 4.11356 8.92505C4.14929 8.92505 4.18466 8.91792 4.2176 8.90408C4.25055 8.89024 4.28039 8.86996 4.3054 8.84444L7.3654 5.70593C7.41912 5.65081 7.44919 5.57689 7.44919 5.49992C7.44919 5.42295 7.41912 5.34903 7.3654 5.29392L4.30599 2.15541C4.28096 2.1297 4.25104 2.10928 4.21799 2.09533C4.18494 2.08138 4.14943 2.07419 4.11356 2.07419C4.07769 2.07419 4.04218 2.08138 4.00913 2.09533C3.97608 2.10928 3.94615 2.1297 3.92113 2.15541C3.86964 2.20812 3.84082 2.27888 3.84082 2.35256C3.84082 2.42624 3.86964 2.497 3.92113 2.54971H3.92172Z" fill="#323232"/>
</svg>
